#!OML:ASF F:\VICON\USERDATA\INSTALL\Justin_Nancy\Justin_Nancy.ASF
:FULLY-SPECIFIED
:DEGREES
1
root 9.29745 17.3586 -29.8211 1.16137 3.6685 4.8613
lowerback 6.08745 -1.61697 -5.75233
upperback 1.01888 -2.48855 1.46377
thorax -2.04713 -1.20286 4.93896
lowerneck -17.2767 -4.37373 -8.05381
upperneck 19.6533 -4.83558 4.22234
head 9.35425 -2.39999 2.14708
rclavicle -3.75703e-014 1.51076e-014
rhumerus -37.0404 -23.6303 -71.8941
rradius 25.4116
rwrist 11.2585
rhand -13.0792 12.6218
rfingers 7.12502
rthumb 13.0168 -16.9521
lclavicle -3.75703e-014 1.51076e-014
lhumerus -23.6254 4.86906 81.6283
lradius 33.2228
lwrist -6.67841
lhand -20.5577 20.5062
lfingers 7.12502
lthumb 5.80141 50.4068
rfemur -25.9243 -0.297369 16.7061
rtibia 15.501
rfoot -3.73965 -2.95452
rtoes -9.12212
lfemur 9.2856 -2.73884 -29.115
ltibia 22.4146
lfoot -13.0516 -5.4138
ltoes -13.0541
2
root 9.28671 17.3411 -29.6451 0.702373 3.18896 5.07107
lowerback 6.60241 -1.80065 -6.22675
upperback 0.589136 -2.79883 1.7637
thorax -2.70455 -1.31799 5.57903
lowerneck -15.5465 -3.85463 -9.03691
upperneck 18.9836 -4.0501 4.44815
head 8.78489 -2.09796 2.50838
rclavicle 2.68359e-014 1.59028e-014
rhumerus -37.7857 -21.6426 -71.6484
rradius 25.4426
rwrist 10.8457
rhand -13.0136 10.9507
rfingers 7.12502
rthumb 13.0801 -18.6192
lclavicle 2.68359e-014 1.59028e-014
lhumerus -25.2033 6.26134 81.5836
lradius 33.2892
lwrist -6.74589
lhand -18.5244 24.504
lfingers 7.12502
lthumb 7.76423 54.3415
rfemur -25.6963 0.020444 16.7356
rtibia 17.1674
rfoot -4.26242 -1.38146
rtoes -9.60479
lfemur 9.78904 -2.50972 -29.4112
ltibia 23.4139
lfoot -12.3317 -5.42402
ltoes -14.2056
3
root 9.26976 17.342 -29.4586 0.468674 3.11437 4.98585
lowerback 6.8557 -1.86661 -6.23481
upperback 0.591255 -2.89883 1.89453
thorax -2.82278 -1.36276 5.74118
lowerneck -15.7566 -3.83216 -9.22445
upperneck 18.9906 -3.92464 4.32803
head 8.81897 -2.06283 2.51152
rclavicle 7.05686e-015 2.38542e-015
rhumerus -37.7839 -21.5728 -71.4055
rradius 25.0884
rwrist 11.0969
rhand -12.6727 10.5376
rfingers 7.12502
rthumb 13.4087 -19.0108
lclavicle 7.05686e-015 2.38542e-015
lhumerus -25.3549 6.99065 81.5062
lradius 32.8395
lwrist -6.76027
lhand -10.8967 38.5022
lfingers 7.12502
lthumb 15.12 67.9299
rfemur -25.1557 0.372095 16.9587
rtibia 17.8441
rfoot -4.03881 0.212198
rtoes -8.46507
lfemur 10.0015 -2.49408 -29.2348
ltibia 24.3936
lfoot -11.2244 -6.07562
ltoes -15.3279
4
root 9.25093 17.3632 -29.2606 0.309203 3.51704 4.90626
lowerback 6.88747 -2.02626 -6.23493
upperback 0.595899 -3.11132 1.96228
thorax -2.80131 -1.46955 5.83033
lowerneck -15.9615 -3.80472 -9.28063
upperneck 19.2506 -3.84429 4.2686
head 8.93984 -2.03679 2.51026
rclavicle 1.99779e-014 -1.59028e-015
rhumerus -37.9879 -22.0414 -70.9783
rradius 24.635
rwrist 11.6425
rhand -12.6774 12.132
rfingers 7.12502
rthumb 13.4041 -17.4167
lclavicle 1.99779e-014 -1.59028e-015
lhumerus -25.5732 7.4338 81.4387
lradius 32.7229
lwrist -7.50128
lhand -17.3178 30.224
lfingers 7.12502
lthumb 8.92866 60.0151
rfemur -24.6954 0.647312 17.0128
rtibia 18.4712
rfoot -3.06975 1.67723
rtoes -4.11972
lfemur 10.0314 -2.83745 -29.0026
ltibia 25.5747
lfoot -10.0168 -7.00305
ltoes -16.6984
5
root 9.24222 17.383 -29.0709 0.133435 3.77324 4.79995
lowerback 6.91704 -2.15965 -6.03405
upperback 0.488426 -3.27719 1.97545
thorax -2.91628 -1.5472 5.74821
lowerneck -15.5771 -3.64571 -9.46728
upperneck 19.4261 -3.66972 4.49154
head 8.9249 -1.95263 2.64567
rclavicle 9.34288e-015 -9.54166e-015
rhumerus -38.4412 -22.2768 -70.5674
rradius 24.2262
rwrist 12.0236
rhand -13.1821 13.7972
rfingers 7.12502
rthumb 12.9176 -15.783
lclavicle 9.34288e-015 -9.54166e-015
lhumerus -26.1006 7.02182 81.6437
lradius 32.5578
lwrist -5.49561
lhand -12.2038 39.7268
lfingers 7.12502
lthumb 13.8606 69.2449
rfemur -24.3458 0.916214 17.0659
rtibia 18.8735
rfoot -1.44582 2.8791
rtoes 2.02278
lfemur 9.89543 -3.09011 -28.8069
ltibia 26.9746
lfoot -8.85513 -7.36843
ltoes -18.4969
6
root 9.24049 17.4032 -28.8912 0.0188222 3.76435 4.31281
lowerback 6.94707 -2.21264 -5.30502
upperback 0.347814 -3.29247 2.04571
thorax -3.11392 -1.55306 5.41695
lowerneck -15.1443 -3.55901 -9.52319
upperneck 19.5005 -3.5819 4.49009
head 8.86611 -1.92233 2.67016
rclavicle 2.3059e-014 -1.27222e-014
rhumerus -38.814 -22.7682 -70.0998
rradius 23.8169
rwrist 12.7231
rhand -13.5043 13.3598
rfingers 7.12502
rthumb 12.6071 -16.2398
lclavicle 2.3059e-014 -1.27222e-014
lhumerus -26.4932 8.17466 81.0892
lradius 32.6054
lwrist -9.21574
lhand -10.9241 34.7605
lfingers 7.12502
lthumb 15.0936 64.1902
rfemur -24.1012 1.12677 17.6258
rtibia 19.2652
rfoot -0.448707 3.17733
rtoes 2.75056
lfemur 9.43908 -3.30417 -28.2866
ltibia 28.5781
lfoot -7.18282 -7.29673
ltoes -19.5029
7
root 9.23154 17.4327 -28.7039 -0.0214624 3.83819 3.74515
lowerback 6.87728 -2.22692 -4.68427
upperback 0.242414 -3.25488 2.2178
thorax -3.2135 -1.53649 5.24304
lowerneck -15.0528 -3.66318 -9.49769
upperneck 19.7266 -3.6917 4.24126
head 8.93153 -2.00267 2.56885
rclavicle 3.29983e-014 -1.90833e-014
rhumerus -39.0863 -22.7207 -70.0068
rradius 24.0054
rwrist 12.4954
rhand -13.5415 11.7925
rfingers 7.12502
rthumb 12.5712 -17.8093
lclavicle 3.29983e-014 -1.90833e-014
lhumerus -26.9475 6.71751 81.9425
lradius 32.4145
lwrist -3.69033
lhand -18.6299 27.0366
lfingers 7.12502
lthumb 7.66236 56.8778
rfemur -23.692 1.30289 18.3454
rtibia 19.662
rfoot -0.189437 1.8964
rtoes -1.32506
lfemur 8.73917 -3.47455 -27.5631
ltibia 30.4372
lfoot -5.02878 -7.72015
ltoes -19.7917
8
root 9.21916 17.4568 -28.5113 -0.237898 3.72464 3.21254
lowerback 7.09354 -2.20726 -4.32152
upperback 0.033089 -3.19887 2.51423
thorax -3.56236 -1.49646 5.36404
lowerneck -14.7009 -3.67785 -9.60431
upperneck 20.0228 -3.65458 3.91054
head 8.96466 -2.03721 2.48255
rclavicle -5.65045e-014 1.98785e-014
rhumerus -39.656 -22.3621 -69.5492
rradius 24.1026
rwrist 12.3649
rhand -13.4227 11.2925
rfingers 7.12502
rthumb 12.6857 -18.3022
lclavicle -5.65045e-014 1.98785e-014
lhumerus -27.6987 6.09414 82.7068
lradius 32.2521
lwrist 0.287714
lhand -20.808 23.4339
lfingers 7.12502
lthumb 5.55973 53.3409
rfemur -23.0283 1.60953 19.0621
rtibia 20.07
rfoot -0.0579702 0.535121
rtoes -2.43828
lfemur 8.13684 -3.27915 -26.7922
ltibia 32.4315
lfoot -2.75275 -8.46328
ltoes -20.4606
9
root 9.21004 17.4722 -28.3203 -0.620004 3.56416 2.56225
lowerback 7.32359 -2.16203 -3.76412
upperback 0.017684 -3.0889 2.77341
thorax -3.73564 -1.44376 5.32413
lowerneck -14.5424 -3.62377 -9.60885
upperneck 20.034 -3.5635 3.76863
head 8.93101 -2.01177 2.44747
rclavicle 3.45388e-014 -9.54166e-015
rhumerus -39.9561 -22.3709 -69.1356
rradius 23.8674
rwrist 12.463
rhand -13.539 10.9983
rfingers 7.12502
rthumb 12.5736 -18.6033
lclavicle 3.45388e-014 -9.54166e-015
lhumerus -28.114 6.40845 82.9632
lradius 31.9781
lwrist 1.0077
lhand -19.9739 25.5352
lfingers 7.12502
lthumb 6.36505 55.4196
rfemur -22.2531 1.9315 19.9328
rtibia 20.5438
rfoot -0.0339217 0.647461
rtoes -1.80385
lfemur 7.59624 -3.0028 -25.8963
ltibia 34.4153
lfoot 0.323416 -9.14968
ltoes -19.1606
10
root 9.19956 17.4878 -28.1264 -0.887662 3.54546 1.90166
lowerback 7.15309 -2.13453 -3.05864
upperback 0.150446 -2.98363 2.91406
thorax -3.54202 -1.41072 5.04797
lowerneck -14.3348 -3.66874 -9.51567
upperneck 19.7169 -3.65225 3.71103
head 8.78767 -2.0489 2.40141
rclavicle 1.1778e-014 1.74931e-014
rhumerus -40.0984 -22.7911 -68.898
rradius 23.6778
rwrist 12.6954
rhand -13.568 11.5457
rfingers 7.12502
rthumb 12.5456 -18.0577
lclavicle 1.1778e-014 1.74931e-014
lhumerus -28.1577 6.84193 82.9446
lradius 31.506
lwrist 0.963551
lhand -19.2716 26.979
lfingers 7.12502
lthumb 7.04297 56.8419
rfemur -21.519 2.07459 20.8172
rtibia 20.9168
rfoot 0.441347 1.80713
rtoes 0.725779
lfemur 6.84687 -2.74679 -24.9038
ltibia 36.4062
lfoot 3.79874 -9.57247
ltoes -17.7573
